<?xml version="1.0" standalone="no"?><!DOCTYPE svg PUBLIC "-//W3C//DTD SVG 1.1//EN" "http://www.w3.org/Graphics/SVG/1.1/DTD/svg11.dtd"><svg class="icon" height="512" viewBox="0 0 1458 1024" version="1.1" xmlns="http://www.w3.org/2000/svg"><path d="M1339.077 1024H118.154C53.012 1024 0 970.988 0 905.846V118.154C0 53.012 53.012 0 118.154 0h1220.923c65.142 0 118.154 53.012 118.154 118.154v787.692c0 65.142-53.012 118.154-118.154 118.154z m39.385-905.846c0-21.701-17.684-39.385-39.385-39.385H118.154c-21.701 0-39.385 17.684-39.385 39.385v787.692c0 21.701 17.684 39.385 39.385 39.385h1220.923c21.7 0 39.385-17.684 39.385-39.385V118.154z m-63.016 557.922H968.862c-13.076 0-23.631-10.594-23.631-23.63 0-13.076 10.555-23.631 23.63-23.631h346.585c13.036 0 23.63 10.555 23.63 23.63 0 13.037-10.594 23.631-23.63 23.631z m0-123.077H968.862c-13.076 0-23.631-10.594-23.631-23.63 0-13.076 10.555-23.631 23.63-23.631h346.585c13.036 0 23.63 10.555 23.63 23.63 0 13.037-10.594 23.631-23.63 23.631z m-157.538-121.344H968.862c-13.076 0-23.631-10.594-23.631-23.63 0-13.037 10.555-23.631 23.63-23.631h189.047c13.036 0 23.63 10.594 23.63 23.63 0 13.037-10.594 23.631-23.63 23.631zM766.385 715.697c0 45.726-35.84 81.566-81.605 81.566-45.725 0-81.565-35.84-81.565-81.566v-11.146h-254.11v11.146c0 45.726-35.8 81.566-81.565 81.566s-81.605-35.84-81.605-81.566v-11.146h-34.777V519.798c0-42.772 28.633-79.32 67.82-90.072l23.159-101.77c16.462-53.8 54.35-64.749 83.298-64.749h301.371c42.732 0 74.673 23.867 85.386 63.882l22.213 103.07c38.557 11.658 66.757 48.128 66.757 89.64V704.55h-34.777v11.146z m-115.909 0c0 19.22 15.085 34.304 34.304 34.304 19.26 0 34.344-15.084 34.344-34.304v-11.185h-68.648v11.185z m-417.28 0c0 19.22 15.085 34.304 34.344 34.304 19.22 0 34.304-15.084 34.304-34.304v-11.185h-68.648v11.185z m433.034-377.58c-4.844-17.96-18.196-27.648-39.424-27.648h-301.37c-20.835 0-30.997 8.034-37.653 29.657l-19.337 85.11H684.82l-18.59-87.12z m87.67 181.681c0-23.473-18.156-43.717-41.314-46.001l-12.918-1.3H257.733l-0.079 0.197-17.605 1.142c-23.71 1.536-41.59 21.307-41.59 45.962v137.413h551.07v0.04h4.371V519.797z m-92.317 91.57c-25.521 0-46.356-20.874-46.356-46.356 0-25.482 20.835-46.356 46.356-46.356 25.482 0 46.355 20.874 46.355 46.356 0 25.482-20.873 46.355-46.355 46.355z m0-69.554c-12.76 0-23.198 10.437-23.198 23.198 0 12.76 10.437 23.158 23.198 23.158 12.721 0 23.158-10.398 23.158-23.158 0-12.76-10.437-23.198-23.158-23.198z m-370.925 69.553c-25.481 0-46.316-20.873-46.316-46.355 0-25.482 20.835-46.356 46.316-46.356 25.522 0 46.396 20.874 46.396 46.356 0 25.482-20.874 46.355-46.396 46.355z m0-69.553c-12.72 0-23.158 10.437-23.158 23.198 0 12.76 10.437 23.158 23.158 23.158 12.8 0 23.237-10.398 23.237-23.158 0-12.76-10.437-23.198-23.237-23.198z" fill="" /></svg>